<svg data-v-423bf9ae="" xmlns="http://www.w3.org/2000/svg" viewBox="0 0 372.3274452236186 163" class="iconAbove"><!----><!----><!----><g data-v-423bf9ae="" id="b091f832-f2e9-474f-817c-c3b85d6636ad" fill="#261624" transform="matrix(4.815409295048693,0,0,4.815409295048693,-7.030504050050553,87.49438503161477)"><path d="M2.23 13.30C2.24 13.30 2.24 13.29 2.27 13.29C2.27 13.29 2.27 13.30 2.28 13.30L4.76 13.30C6.41 13.30 7.76 11.96 7.76 10.29C7.76 9.23 7.18 8.29 6.34 7.76C6.68 7.31 6.87 6.76 6.87 6.16C6.87 4.69 5.68 3.50 4.21 3.50L2.28 3.50C2.27 3.50 2.27 3.50 2.27 3.50C2.24 3.50 2.24 3.50 2.23 3.50C1.81 3.50 1.46 3.84 1.46 4.27L1.46 12.53C1.46 12.95 1.81 13.30 2.23 13.30ZM3.01 5.05L4.21 5.05C4.83 5.05 5.32 5.54 5.32 6.16C5.32 6.78 4.83 7.29 4.21 7.29L3.01 7.29L3.01 5.05ZM3.01 8.85L4.76 8.85C5.56 8.86 6.20 9.49 6.20 10.29C6.20 11.10 5.56 11.73 4.76 11.75L3.01 11.75L3.01 8.85ZM12.54 13.30C13.54 13.30 14.36 13.01 15.05 12.38C15.37 12.08 15.23 11.66 15.05 11.47C14.87 11.24 14.29 11.20 14 11.51C13.65 11.77 13.05 11.90 12.54 11.86C12.05 11.82 11.49 11.56 11.20 11.23C10.95 10.99 10.79 10.63 10.72 10.30L15.18 10.30C15.57 10.30 15.86 10.08 15.90 9.74C15.92 9.72 15.92 9.65 15.92 9.62C15.92 9.62 15.92 9.62 15.92 9.62C15.92 9.62 15.92 9.62 15.92 9.62C15.92 9.59 15.92 9.56 15.92 9.55C15.81 7.66 14.36 6.30 12.54 6.30C10.63 6.30 9.14 7.90 9.13 9.80C9.14 11.70 10.63 13.29 12.54 13.30ZM12.54 7.63C13.76 7.73 14.48 8.55 14.62 9.11L10.65 9.11C10.77 8.54 11.35 7.69 12.54 7.63ZM24.07 7.06C24.07 6.64 23.73 6.30 23.32 6.30C22.96 6.30 22.68 6.57 22.60 6.92C22.06 6.54 21.43 6.30 20.73 6.30C19.78 6.30 18.96 6.71 18.35 7.35C17.75 7.98 17.40 8.85 17.40 9.81C17.40 10.77 17.75 11.63 18.35 12.28C18.96 12.91 19.78 13.30 20.73 13.30C20.73 13.30 20.73 13.30 20.73 13.30C21.43 13.30 22.06 13.08 22.60 12.70C22.68 13.03 22.96 13.30 23.32 13.30C23.73 13.30 24.07 12.96 24.07 12.56L24.07 9.81C24.07 9.81 24.07 9.81 24.07 9.81C24.07 9.81 24.07 9.81 24.07 9.81L24.07 7.06ZM22.04 11.26C21.70 11.61 21.22 11.80 20.73 11.80C20.23 11.80 19.75 11.61 19.43 11.26C19.10 10.89 18.90 10.39 18.90 9.81C18.90 9.23 19.10 8.72 19.43 8.37C19.75 7.99 20.23 7.80 20.73 7.80C21.22 7.80 21.70 7.99 22.04 8.37C22.37 8.72 22.58 9.23 22.58 9.81C22.58 10.39 22.37 10.89 22.04 11.26ZM32.54 10.39L32.54 7.04C32.54 6.65 32.17 6.30 31.78 6.30C31.36 6.30 31.05 6.65 31.05 7.04L31.05 7.04L31.05 10.39C31.04 11.19 30.39 11.82 29.58 11.82C28.78 11.82 28.15 11.19 28.15 10.39L28.15 7.04C28.15 6.65 27.83 6.30 27.41 6.30C27.01 6.30 26.67 6.65 26.67 7.04L26.67 10.39C26.67 11.98 27.99 13.30 29.58 13.30C31.19 13.30 32.54 11.98 32.54 10.39ZM37.76 6.30L37.41 6.30L37.41 4.27C37.41 3.84 37.07 3.50 36.64 3.50C36.20 3.50 35.85 3.84 35.85 4.27L35.85 4.27L35.85 6.30L35.45 6.30C35.01 6.30 34.68 6.64 34.68 7.07C34.68 7.49 35.01 7.84 35.45 7.84L35.85 7.84L35.85 11.75C35.85 12.60 36.55 13.30 37.41 13.30C37.84 13.30 38.18 12.96 38.18 12.53C38.18 12.10 37.84 11.75 37.41 11.75C37.41 11.75 37.41 11.75 37.41 11.75L37.41 7.84L37.76 7.84C38.18 7.84 38.54 7.49 38.54 7.07C38.54 6.64 38.18 6.30 37.76 6.30ZM45.51 6.30C45.09 6.30 44.79 6.62 44.79 7.04L44.79 10.35C44.79 11.16 44.14 11.77 43.34 11.77C42.55 11.77 41.89 11.16 41.89 10.35L41.89 7.04C41.89 6.62 41.58 6.30 41.15 6.30C40.77 6.30 40.42 6.62 40.42 7.04L40.42 10.35C40.42 11.96 41.73 13.29 43.34 13.29C43.81 13.29 44.28 13.17 44.67 12.95C44.45 13.68 43.75 14.21 42.92 14.22C42.64 14.22 42.38 14.15 42.11 14.03C41.78 13.85 41.30 14 41.12 14.34C40.95 14.73 41.09 15.16 41.48 15.33C41.90 15.54 42.42 15.68 42.92 15.68C44.79 15.68 46.27 14.21 46.27 12.33L46.27 10.35C46.27 10.35 46.27 10.35 46.27 10.35L46.27 7.04C46.27 6.62 45.92 6.30 45.51 6.30ZM49.18 11.89L49.18 11.89C49.98 12.52 51.25 13.27 52.77 13.29L52.77 13.29C53.76 13.29 54.67 12.99 55.36 12.49L55.36 12.49C56.06 11.98 56.56 11.21 56.56 10.32L56.56 10.32C56.56 9.88 56.43 9.46 56.22 9.13L56.22 9.13C55.90 8.61 55.40 8.25 54.82 7.97L54.82 7.97C54.26 7.70 53.61 7.52 52.89 7.38L52.89 7.38L52.86 7.38L52.86 7.38C52.11 7.24 51.48 7.01 51.11 6.76L51.11 6.76C50.93 6.64 50.81 6.51 50.74 6.40L50.74 6.40C50.67 6.29 50.64 6.17 50.64 6.01L50.64 6.01C50.64 5.71 50.79 5.40 51.17 5.12L51.17 5.12C51.55 4.84 52.11 4.65 52.74 4.65L52.74 4.65C53.59 4.65 54.28 5.07 54.99 5.54L54.99 5.54C55.33 5.77 55.78 5.67 55.99 5.33L55.99 5.33C56.21 5.01 56.11 4.56 55.79 4.34L55.79 4.34C55.08 3.88 54.08 3.22 52.74 3.22L52.74 3.22C51.83 3.22 50.97 3.49 50.32 3.96L50.32 3.96C49.67 4.44 49.20 5.17 49.20 6.01L49.20 6.01C49.20 6.43 49.31 6.82 49.52 7.15L49.52 7.15C49.83 7.64 50.29 7.99 50.82 8.25L50.82 8.25C51.35 8.50 51.97 8.67 52.63 8.79L52.63 8.79L52.65 8.79L52.65 8.79C53.48 8.95 54.17 9.18 54.57 9.45L54.57 9.45C54.78 9.59 54.91 9.73 54.99 9.87L54.99 9.87C55.08 10.01 55.12 10.14 55.12 10.32L55.12 10.32C55.12 10.67 54.94 11.02 54.52 11.33L54.52 11.33C54.10 11.63 53.47 11.84 52.77 11.84L52.77 11.84C51.77 11.86 50.71 11.27 50.09 10.77L50.09 10.77C49.78 10.51 49.32 10.56 49.07 10.86L49.07 10.86C48.83 11.17 48.87 11.63 49.18 11.89ZM60.12 9.37C60.13 8.54 60.79 7.87 61.61 7.85C62.45 7.87 63.13 8.54 63.13 9.37L63.13 12.53C63.13 12.96 63.46 13.30 63.90 13.30C64.33 13.30 64.67 12.96 64.67 12.53L64.67 9.37C64.67 7.69 63.31 6.30 61.61 6.30C61.07 6.30 60.56 6.47 60.12 6.71L60.12 4.27C60.12 3.84 59.77 3.50 59.33 3.50C58.91 3.50 58.56 3.84 58.56 4.27L58.56 12.53C58.56 12.60 58.58 12.67 58.59 12.73C58.69 13.05 58.98 13.30 59.33 13.30C59.77 13.30 60.12 12.96 60.12 12.53L60.12 9.37ZM70.20 13.34C70.20 13.34 70.20 13.34 70.20 13.34C71.12 13.34 71.96 12.94 72.53 12.28C73.16 11.66 73.51 10.79 73.51 9.81L73.51 9.81C73.51 8.86 73.16 8.04 72.53 7.36C71.96 6.71 71.12 6.30 70.20 6.30C69.23 6.30 68.42 6.71 67.79 7.36C67.19 8.04 66.82 8.86 66.82 9.81C66.82 10.79 67.19 11.66 67.79 12.28C68.42 12.94 69.23 13.34 70.20 13.34ZM68.85 8.36C69.20 8.05 69.66 7.83 70.20 7.83C70.69 7.83 71.13 8.05 71.48 8.36C71.83 8.74 72.03 9.24 72.03 9.81L72.03 9.81C72.03 10.42 71.83 10.91 71.48 11.30C71.13 11.63 70.69 11.82 70.20 11.82C69.66 11.82 69.20 11.63 68.85 11.30C68.53 10.91 68.35 10.42 68.35 9.81C68.35 9.24 68.53 8.74 68.85 8.36ZM77.99 6.30L77.64 6.30L77.64 4.27C77.64 3.84 77.31 3.50 76.87 3.50C76.44 3.50 76.09 3.84 76.09 4.27L76.09 4.27L76.09 6.30L75.68 6.30C75.25 6.30 74.91 6.64 74.91 7.07C74.91 7.49 75.25 7.84 75.68 7.84L76.09 7.84L76.09 11.75C76.09 12.60 76.79 13.30 77.64 13.30C78.08 13.30 78.41 12.96 78.41 12.53C78.41 12.10 78.08 11.75 77.64 11.75C77.64 11.75 77.64 11.75 77.64 11.75L77.64 7.84L77.99 7.84C78.41 7.84 78.78 7.49 78.78 7.07C78.78 6.64 78.41 6.30 77.99 6.30Z"></path></g><defs data-v-423bf9ae=""><linearGradient data-v-423bf9ae="" gradientTransform="rotate(25)" id="1c62d999-b3bc-45be-b7c5-176fb9fb9496" x1="0%" y1="0%" x2="100%" y2="0%"><stop data-v-423bf9ae="" offset="0%" style="stop-color: rgb(233, 140, 0); stop-opacity: 1;"></stop><stop data-v-423bf9ae="" offset="100%" style="stop-color: rgb(143, 91, 254); stop-opacity: 1;"></stop></linearGradient></defs><g data-v-423bf9ae="" id="2b1490e4-bb27-4ed4-b9ae-262184e81cae" transform="matrix(2.8125,0,0,2.8125,142,0)" stroke="none" fill="url(#1c62d999-b3bc-45be-b7c5-176fb9fb9496)"><path d="M9.571 20.464l8.064 4.47 8.065-4.47v-8.939l-8.065-4.469-8.064 4.469z"></path><path d="M32 0H0v32h32l-5.054-5.172H5.054V5.172h21.892z"></path></g><!----></svg>